<?xml version="1.0" encoding="UTF-8"?>
<svg width="282px" height="60px" viewBox="0 0 282 60" version="1.1" xmlns="http://www.w3.org/2000/svg" xmlns:xlink="http://www.w3.org/1999/xlink">
    <!-- Generator: Sketch 46.2 (44496) - http://www.bohemiancoding.com/sketch -->
    <title>Scoreboard</title>
    <desc>Created with Sketch.</desc>
    <defs></defs>
    <g id="Page-1" stroke="none" stroke-width="1" fill="none" fill-rule="evenodd">
        <g id="Scoreboard" transform="translate(141.000000, 30.000000) scale(-1, 1) translate(-141.000000, -30.000000) " fill="#CA3C3C">
            <path d="M29.559598,0.439696334 L252.440402,0.439696334 L252.440402,0.439696334 C268.765717,0.439696334 282,13.6739792 282,29.9992944 L282,29.9992944 L282,29.9992944 C282,46.3246096 268.765717,59.5588924 252.440402,59.5588924 L29.559598,59.5588924 L29.559598,59.5588924 C13.2342828,59.5588924 1.64990672e-14,46.3246096 0,29.9992944 L0,29.9992944 L0,29.9992944 C-1.64990672e-14,13.6739792 13.2342828,0.439696334 29.559598,0.439696334 Z" id="Rectangle"></path>
        </g>
        <path d="M203,7.49703836 L203,49.7048937" id="Line" stroke="#E7D5D5" stroke-width="3" stroke-linecap="square"></path>
        <path d="M80,7.49703836 L80,49.7048937" id="Line" stroke="#E7D5D5" stroke-width="3" stroke-linecap="square"></path>
    </g>
</svg>